<!-- Generator: Adobe Illustrator 25.0.0, SVG Export Plug-In . SVG Version: 6.00 Build 0)  -->
<svg version="1.1" id="Capa_1" xmlns="http://www.w3.org/2000/svg" x="0px" y="0px" viewBox="0 0 511 511" style="enable-background:new 0 0 511 511;" xml:space="preserve">

    <g>
        <path class="st0" d="M256.2,2c54.4,1.6,98.4,23.6,131,67.5c14.4,19.3,23.4,41.2,27.9,64.9c2.8,14.9,3.5,29.9,2,45
                        		c-2.6,26.6-11.2,51.2-26,73.6c-9.3,14.1-18.3,28.3-27.4,42.5c-33.4,51.9-66.7,103.9-100,155.9c-0.7,1-1.3,2.1-2.2,2.9
                        		c-3.7,3.3-9.5,2.6-12.4-1.8c-3.8-5.7-7.5-11.6-11.2-17.4c-37.5-58.5-75-117.1-112.5-175.6c-5.4-8.4-10.8-16.8-15.2-25.8
                        		c-7.4-15.2-12.3-31.2-14.5-47.9c-1.3-10-1.8-20.1-1.3-30.1c2-35,13.7-66.3,35.9-93.5c23.5-28.8,53.4-47.3,89.6-55.9
                        		C231.1,3.6,244.2,2.1,256.2,2z M255.9,247.9c45.2,0.3,83.9-36.3,84.1-83.8c0.2-46-37.4-83.7-83.1-84.1
            c-45.1-0.4-84.5,35.7-84.8,83.3C171.8,210.1,209.3,247.8,255.9,247.9z" fill="#00AEEF"/>


        <path class="st1" d="M174.2,362.2c-4.4,0.7-8.4,1.3-12.3,2c-24.1,4.3-47.8,10.2-70.4,20.1c-10.1,4.5-19.7,9.7-28.3,16.7
                    		c-4.3,3.5-8.1,7.4-11.1,12.1c-2.8,4.4-4.6,9.1-4.5,14.3c0.1,4.8,1.6,9.2,4.1,13.2c3.1,4.9,7.1,9,11.6,12.6
                    		c9.1,7.3,19.3,12.6,30,17.1c17.7,7.6,36.1,12.7,54.8,16.7c14.4,3.1,29,5.4,43.6,7c12.8,1.4,25.6,2.4,38.4,3
                    		c16,0.7,31.9,0.7,47.9,0.2c14.5-0.5,28.9-1.6,43.3-3.2c24.5-2.8,48.7-7.2,72.4-14.4c15-4.5,29.6-10.1,43.2-17.9
                    		c5.8-3.3,11.2-7.1,16.1-11.6c3.3-3.1,6.3-6.5,8.6-10.4c4.9-8.6,4.9-17.1-0.1-25.6c-3.2-5.4-7.5-9.7-12.3-13.6
                    		c-8.7-7-18.6-12.3-28.8-16.7c-16.7-7.3-34.1-12.3-51.9-16.2c-10-2.2-20.1-4-30.1-5.5c-0.3-0.8,0.3-1.3,0.7-1.8
                    		c1.7-2.6,3.4-5.2,5-7.9c0.8-1.3,1.7-1.7,3.2-1.4c10.3,1.8,20.6,3.8,30.8,6.3c16.8,4.1,33.3,9.2,49.1,16.2
                    		c10.8,4.8,21.2,10.4,30.4,17.8c5.3,4.3,10.2,9.1,13.8,14.9c8.7,14,8.6,28-0.3,41.8c-4.8,7.5-11.4,13.3-18.6,18.4
                    		c-11.2,8-23.6,13.8-36.4,18.6c-17.1,6.5-34.7,11.1-52.6,14.7c-13.2,2.7-26.6,4.7-40,6.3c-10.4,1.2-20.8,2.1-31.3,2.7
                    		c-11,0.7-22.1,1-33.1,1.1c-16.7,0.1-33.4-0.5-50.1-1.8c-27.3-2.2-54.3-6.2-80.8-13.2c-18.3-4.8-36.2-10.9-53-19.7
                    		c-9.7-5.1-18.8-11-26.4-19c-4.2-4.3-7.8-9.1-10.1-14.7c-5-11.8-4-23.2,2.5-34.1c4.2-7.1,10-12.7,16.5-17.6
                    		c9.4-7.2,19.9-12.6,30.8-17.3c17.9-7.7,36.5-13,55.5-17.2c7.1-1.6,14.3-2.9,21.4-4.2c1.3-0.2,2.1,0,2.8,1.2
            C169.9,355.6,172,358.7,174.2,362.2z" fill="#6A6A6A"/>


    </g>
</svg>
